# xmcd
#
# Track frame offsets: 
#        150
#        18607
#        29893
#        44551
#        61251
#        69963
#        86016
#        111759
#        127479
#        138740
#        153684
#        167341
#        181216
#        207396
#        224360
#        243362
#        270739
#        289459
#
# Disc length: 4026 seconds
#
# Revision: 0
# Processed by: cddbd v1.5.2PL0 Copyright (c) Steve Scherf et al.
# Submitted via: ExactAudioCopy v1.0b1
#
DISCID=220fb812
DTITLE=Boogie Radio - Music To Watch Girls By
DYEAR=2005
DGENRE=Blues
TTITLE0=Mighty River
TTITLE1=Caffeine Rock
TTITLE2=Wait, Honey!
TTITLE3=Lazy Day
TTITLE4=Ella
TTITLE5=It's You
TTITLE6=Backdoor Blues
TTITLE7=Evil Woman (On My Trail)
TTITLE8=What Else Love Can Bring
TTITLE9=So Good
TTITLE10=Can't Stop Watchin'
TTITLE11=Over The Hill
TTITLE12=I Wanna Grow Old With You, Baby
TTITLE13=Burnin' For The Blues
TTITLE14=I'm Just Your Fool
TTITLE15=What A Girl
TTITLE16=Games
TTITLE17=Do Do Right
EXTD=
EXTT0=
EXTT1=
EXTT2=
EXTT3=
EXTT4=
EXTT5=
EXTT6=
EXTT7=
EXTT8=
EXTT9=
EXTT10=
EXTT11=
EXTT12=
EXTT13=
EXTT14=
EXTT15=
EXTT16=
EXTT17=
PLAYORDER=
